<?xml version="1.0" encoding="utf-8"?>
<!-- Generator: Adobe Illustrator 27.3.1, SVG Export Plug-In . SVG Version: 6.00 Build 0)  -->
<svg version="1.1" id="Layer_1" xmlns="http://www.w3.org/2000/svg" xmlns:xlink="http://www.w3.org/1999/xlink" x="0px" y="0px"
	 viewBox="0 0 360 360" style="enable-background:new 0 0 360 360;" xml:space="preserve">
<style type="text/css">
	.st0{fill:#FFFFFF;}
	.st1{fill:none;}
	.st2{fill:none;stroke:#FFFFFF;stroke-width:2;stroke-miterlimit:10;}
</style>
<g>
	<path class="st0" d="M152.9,241.4c-0.2-0.3-0.6-0.5-1-0.7c-0.4-0.1-0.8-0.2-1.2-0.2c-0.2,0-0.4,0-0.7,0.1c-0.2,0.1-0.4,0.1-0.6,0.2
		c-0.2,0.1-0.4,0.3-0.5,0.4c-0.1,0.2-0.2,0.4-0.2,0.6c0,0.4,0.2,0.7,0.5,0.9c0.3,0.2,0.7,0.4,1.2,0.6c0.5,0.2,1,0.3,1.5,0.5
		c0.5,0.2,1,0.4,1.5,0.6c0.5,0.3,0.8,0.7,1.2,1.1c0.3,0.5,0.5,1.1,0.5,1.9c0,0.8-0.1,1.4-0.4,2c-0.3,0.6-0.7,1-1.1,1.4
		c-0.5,0.4-1,0.6-1.7,0.8c-0.6,0.2-1.3,0.3-2,0.3c-0.9,0-1.7-0.1-2.4-0.4c-0.8-0.3-1.4-0.7-2.1-1.3l2.1-2.3c0.3,0.4,0.7,0.7,1.2,0.9
		c0.5,0.2,0.9,0.3,1.4,0.3c0.2,0,0.5,0,0.7-0.1c0.2-0.1,0.5-0.1,0.7-0.3c0.2-0.1,0.4-0.3,0.5-0.4c0.1-0.2,0.2-0.4,0.2-0.6
		c0-0.4-0.2-0.7-0.5-1c-0.3-0.2-0.7-0.4-1.2-0.6c-0.5-0.2-1-0.3-1.5-0.5c-0.5-0.2-1.1-0.4-1.5-0.7c-0.5-0.3-0.9-0.6-1.2-1.1
		c-0.3-0.5-0.5-1.1-0.5-1.8c0-0.7,0.1-1.4,0.4-1.9c0.3-0.5,0.7-1,1.1-1.4c0.5-0.4,1-0.6,1.7-0.8c0.6-0.2,1.3-0.3,1.9-0.3
		c0.8,0,1.5,0.1,2.2,0.3c0.7,0.2,1.4,0.6,1.9,1.1L152.9,241.4z"/>
	<path class="st0" d="M167.4,241.6c-0.3-0.4-0.7-0.6-1.1-0.8c-0.4-0.2-0.9-0.3-1.5-0.3c-0.6,0-1.1,0.1-1.6,0.3
		c-0.5,0.2-0.9,0.5-1.2,0.9c-0.4,0.4-0.6,0.8-0.8,1.4c-0.2,0.5-0.3,1.1-0.3,1.7c0,0.6,0.1,1.2,0.3,1.7c0.2,0.5,0.5,1,0.8,1.4
		c0.3,0.4,0.7,0.7,1.2,0.9c0.5,0.2,1,0.3,1.5,0.3c0.6,0,1.2-0.1,1.6-0.4c0.5-0.3,0.9-0.6,1.2-1.1l2.5,1.9c-0.6,0.8-1.3,1.4-2.2,1.8
		c-0.9,0.4-1.8,0.6-2.7,0.6c-1.1,0-2-0.2-2.9-0.5c-0.9-0.3-1.7-0.8-2.3-1.4c-0.6-0.6-1.2-1.4-1.5-2.2c-0.4-0.9-0.5-1.9-0.5-2.9
		c0-1.1,0.2-2.1,0.5-2.9c0.4-0.9,0.9-1.6,1.5-2.2c0.6-0.6,1.4-1.1,2.3-1.4c0.9-0.3,1.9-0.5,2.9-0.5c0.4,0,0.8,0,1.2,0.1
		c0.4,0.1,0.8,0.2,1.2,0.3c0.4,0.2,0.8,0.4,1.2,0.6c0.4,0.3,0.7,0.6,1,0.9L167.4,241.6z"/>
	<path class="st0" d="M172.4,244.9c0-1.1,0.2-2.1,0.5-2.9c0.4-0.9,0.9-1.6,1.5-2.2c0.6-0.6,1.4-1.1,2.3-1.4c0.9-0.3,1.9-0.5,2.9-0.5
		c1.1,0,2,0.2,2.9,0.5c0.9,0.3,1.7,0.8,2.3,1.4s1.2,1.4,1.5,2.2c0.4,0.9,0.5,1.9,0.5,2.9c0,1.1-0.2,2.1-0.5,2.9
		c-0.4,0.9-0.9,1.6-1.5,2.2c-0.6,0.6-1.4,1.1-2.3,1.4c-0.9,0.3-1.9,0.5-2.9,0.5c-1.1,0-2-0.2-2.9-0.5c-0.9-0.3-1.7-0.8-2.3-1.4
		c-0.6-0.6-1.2-1.4-1.5-2.2C172.6,246.9,172.4,245.9,172.4,244.9z M175.5,244.9c0,0.6,0.1,1.2,0.3,1.7c0.2,0.5,0.5,1,0.8,1.4
		c0.4,0.4,0.8,0.7,1.3,0.9c0.5,0.2,1.1,0.3,1.7,0.3c0.6,0,1.2-0.1,1.7-0.3c0.5-0.2,1-0.5,1.3-0.9c0.4-0.4,0.7-0.8,0.8-1.4
		c0.2-0.5,0.3-1.1,0.3-1.7c0-0.6-0.1-1.2-0.3-1.7c-0.2-0.5-0.5-1-0.8-1.4c-0.4-0.4-0.8-0.7-1.3-0.9c-0.5-0.2-1.1-0.3-1.7-0.3
		c-0.6,0-1.2,0.1-1.7,0.3c-0.5,0.2-1,0.5-1.3,0.9c-0.4,0.4-0.7,0.8-0.8,1.4C175.6,243.7,175.5,244.2,175.5,244.9z"/>
	<path class="st0" d="M201.8,246.4c0,0.8-0.1,1.5-0.4,2.2c-0.2,0.7-0.6,1.3-1.1,1.8c-0.5,0.5-1.1,0.9-1.8,1.2
		c-0.7,0.3-1.5,0.4-2.5,0.4c-0.9,0-1.8-0.1-2.5-0.4s-1.3-0.7-1.8-1.2c-0.5-0.5-0.8-1.1-1.1-1.8c-0.2-0.7-0.4-1.4-0.4-2.2v-8.3h3v8.2
		c0,0.4,0.1,0.8,0.2,1.2c0.1,0.4,0.3,0.7,0.6,0.9c0.2,0.3,0.5,0.5,0.9,0.6c0.3,0.1,0.7,0.2,1.1,0.2c0.4,0,0.8-0.1,1.1-0.2
		c0.3-0.1,0.6-0.3,0.9-0.6c0.2-0.3,0.4-0.6,0.6-0.9c0.1-0.4,0.2-0.7,0.2-1.2v-8.2h3V246.4z"/>
	<path class="st0" d="M208.6,240.7h-3.9v-2.6h10.7v2.6h-3.9v10.9h-3V240.7z"/>
</g>
<g>
	<path class="st0" d="M126.9,268.2c0,0-0.1,0-0.1-0.1c0,0,0-0.1,0-0.1v-0.6v-0.6v-0.6v-0.6v-0.6l0-0.6v-0.6l0-0.6v-0.6v-0.6l0-0.6
		l0-0.6l0-0.6v-0.6l0-0.6c0,0,0-0.1,0-0.1c0,0,0.1-0.1,0.1-0.1h0.6l0.6,0h0.6h0.6c0.1,0,0.2,0,0.3,0c0.1,0,0.2,0,0.3,0
		c0.1,0,0.2,0,0.3,0c0.1,0,0.2,0,0.2,0c0.2,0,0.4,0.1,0.6,0.1c0.1,0,0.3,0.1,0.5,0.2c0.2,0.1,0.4,0.2,0.5,0.2
		c0.1,0.1,0.3,0.2,0.4,0.3c0.1,0.1,0.3,0.3,0.4,0.4c0.1,0.1,0.2,0.3,0.3,0.5c0.1,0.2,0.1,0.4,0.2,0.5c0,0.1,0,0.3,0,0.6
		c0,0.2,0,0.4,0,0.6c-0.1,0.2-0.1,0.4-0.2,0.6c-0.1,0.2-0.2,0.4-0.3,0.5c-0.2,0.2-0.3,0.4-0.4,0.5c-0.1,0.1-0.3,0.2-0.5,0.4
		c0,0,0,0,0,0c0,0,0,0,0,0.1c0.1,0.1,0.1,0.2,0.1,0.2c0,0.1,0.1,0.2,0.1,0.2l0.3,0.5c0.1,0.1,0.1,0.2,0.1,0.2l0.1,0.3l0.3,0.5
		c0,0.1,0.1,0.2,0.1,0.2c0,0.1,0.1,0.2,0.2,0.3l0.3,0.5c0,0.1,0.1,0.2,0.1,0.2c0,0.1,0.1,0.2,0.2,0.3c0,0,0,0,0,0c0,0,0,0.1,0,0.1
		c0,0,0,0-0.1,0c-0.1,0-0.2,0-0.3,0c-0.1,0-0.2,0-0.3,0c-0.1,0-0.2,0-0.3,0c-0.1,0-0.2,0-0.3,0h-0.6c-0.1,0-0.1,0-0.2,0
		c0,0-0.1-0.1-0.1-0.1l-0.3-0.5l-0.3-0.5l-0.3-0.5l-0.3-0.5c-0.1-0.1-0.1-0.2-0.1-0.3c0-0.1-0.1-0.2-0.1-0.3l-0.3-0.5
		c0,0-0.1-0.1-0.1-0.1h-0.8c-0.1,0-0.1,0-0.1,0.1v0.6l0,0.6l0,0.6c0,0.1,0,0.2,0,0.3c0,0.1,0,0.2,0,0.3v0.6c0,0,0,0.1,0,0.1
		c0,0-0.1,0-0.1,0H128c-0.1,0-0.2,0-0.3,0c-0.1,0-0.2,0-0.3,0H126.9z M129.8,263.1c0.2,0,0.4,0,0.6-0.1c0.2,0,0.4-0.1,0.5-0.2
		c0.2-0.1,0.3-0.3,0.4-0.4c0.1-0.2,0.1-0.4,0.1-0.6c0-0.2,0-0.4-0.1-0.5c-0.1-0.1-0.2-0.3-0.4-0.4c-0.2-0.1-0.3-0.1-0.5-0.2
		c-0.1,0-0.3,0-0.5,0l-0.5,0l-0.5,0c0,0,0,0-0.1,0c0,0,0,0,0,0.1c0,0.1,0,0.2,0,0.3c0,0.1,0,0.2,0,0.3v0.5v0.5v0.5
		c0,0.1,0,0.1,0.1,0.1h0.5H129.8z"/>
	<path class="st0" d="M138,268.2h-0.6h-0.6c-0.1,0-0.2,0-0.3,0c-0.1,0-0.2,0-0.3,0h-0.6c0,0-0.1,0-0.1,0c0,0,0-0.1,0-0.1v-0.6l0-0.6
		v-0.6c0-0.1,0-0.2,0-0.3v-0.3v-0.6v-0.6v-0.6l0-0.6c0-0.1,0-0.2,0-0.3v-0.3l0-0.6v-0.6V261v-0.6v-0.6l0-0.6c0,0,0-0.1,0-0.1
		c0,0,0.1-0.1,0.1-0.1h0.6c0.1,0,0.2,0,0.3,0c0.1,0,0.2,0,0.3,0h0.5h0.6h0.6l0.6,0h0.6h0.6c0.1,0,0.2,0,0.3,0c0.1,0,0.2,0,0.3,0
		c0,0,0.1,0,0.1,0c0,0,0,0.1,0,0.1l0,0.5l0,0.5c0,0.1,0,0.2,0,0.2c0,0.1,0,0.1,0,0.3c0,0,0,0.1-0.1,0.1c0,0-0.1,0-0.1,0h-0.6H140
		l-0.3,0c-0.1,0-0.2,0-0.3,0c-0.1,0-0.2,0-0.3,0h-0.6h-0.6h-0.6c0,0,0,0-0.1,0s0,0,0,0.1v0.5c0,0.1,0,0.2,0,0.3c0,0.1,0,0.1,0,0.2
		s0,0.2,0,0.2c0,0.1,0,0.1,0,0.3c0,0,0,0,0,0.1c0,0,0,0,0.1,0h0.5h0.5h0.5h0.5h0.5c0,0,0.1,0,0.1,0c0,0,0,0.1,0,0.1
		c0,0.1,0,0.3,0,0.3c0,0.1,0,0.2,0,0.3c0,0.1,0,0.3,0,0.3c0,0.1,0,0.2,0,0.3c0,0,0,0.1,0,0.1c0,0-0.1,0.1-0.1,0.1h-0.5
		c-0.1,0-0.2,0-0.3,0c-0.1,0-0.2,0-0.3,0l-0.5,0l-0.5,0h-0.5c0,0,0,0-0.1,0s0,0,0,0.1c0,0.2,0,0.3,0,0.3v0.3v0.6l0,0.6
		c0,0,0,0,0,0.1s0,0,0.1,0l0.6,0l0.6,0l0.6,0h0.6h0.3c0,0,0.1,0,0.3,0l0.6,0c0,0,0.1,0,0.1,0.1c0,0,0,0.1,0,0.1v0.5v0.5v0.2l0,0.3
		c0,0,0,0.1-0.1,0.1c0,0-0.1,0-0.1,0h-0.6h-0.6c-0.1,0-0.2,0-0.3,0c-0.1,0-0.2,0-0.3,0h-0.6H138z"/>
	<path class="st0" d="M142.7,268.1c0,0,0-0.1,0-0.1c0-0.2,0.1-0.3,0.1-0.3l0.1-0.3c0-0.1,0.1-0.2,0.1-0.3l0.1-0.3
		c0-0.1,0.1-0.2,0.1-0.3c0-0.1,0-0.2,0.1-0.2c0-0.1,0.1-0.2,0.1-0.3c0-0.1,0.1-0.2,0.1-0.3l0.2-0.5c0.1-0.2,0.1-0.4,0.2-0.5
		c0-0.1,0-0.1,0.1-0.2c0,0,0-0.1,0-0.1c0,0,0-0.1,0.1-0.3l0.1-0.3l0.1-0.3l0.2-0.5c0.1-0.2,0.1-0.4,0.2-0.5c0-0.1,0.1-0.2,0.1-0.3
		c0-0.1,0-0.2,0.1-0.3c0-0.1,0.1-0.2,0.1-0.3c0-0.1,0.1-0.2,0.1-0.3l0.2-0.6l0.2-0.5c0-0.1,0.1-0.2,0.1-0.3c0-0.1,0.1-0.2,0.1-0.3
		l0.2-0.5c0-0.1,0.1-0.2,0.2-0.2h0.6h0.6c0.1,0,0.2,0,0.3,0c0.1,0,0.2,0,0.3,0c0,0,0.1,0,0.1,0c0,0,0.1,0.1,0.1,0.1
		c0,0.1,0.1,0.2,0.1,0.3c0,0.1,0,0.2,0.1,0.3l0.1,0.3l0.1,0.3c0,0.2,0.1,0.3,0.1,0.3c0,0.1,0.1,0.2,0.1,0.3l0.1,0.3l0.1,0.3l0.2,0.6
		l0.2,0.5l0.2,0.5l0.2,0.5c0,0.1,0.1,0.2,0.1,0.3c0,0.1,0,0.2,0.1,0.2c0,0,0.1,0.2,0.2,0.5l0.2,0.5c0,0.2,0.1,0.3,0.1,0.3l0.1,0.3
		c0,0.1,0.1,0.2,0.1,0.3c0,0.1,0.1,0.2,0.1,0.3l0.2,0.6l0.2,0.5c0,0.1,0.1,0.2,0.1,0.3c0,0.1,0.1,0.2,0.1,0.3v0c0,0,0,0.1,0,0.1
		c0,0-0.1,0-0.1,0c-0.1,0-0.2,0-0.3,0c-0.1,0-0.2,0-0.3,0h-0.5c-0.1,0-0.2,0-0.3,0c-0.1,0-0.2,0-0.3,0c0,0-0.1,0-0.1,0
		c0,0-0.1-0.1-0.1-0.1c-0.1-0.2-0.1-0.4-0.2-0.6l-0.2-0.6l-0.2-0.6c0-0.1-0.1-0.1-0.1-0.1c-0.2,0-0.3,0-0.3,0h-0.3h-0.3
		c0,0-0.1,0-0.3,0l-0.6,0h-0.6c-0.1,0-0.1,0-0.1,0.1c-0.1,0.2-0.1,0.4-0.2,0.6l-0.2,0.6c0,0.1,0,0.2-0.1,0.3c0,0.1-0.1,0.2-0.1,0.3
		c0,0,0,0.1-0.1,0.1c0,0-0.1,0-0.2,0h-0.5h-0.5c-0.1,0-0.2,0-0.3,0C143,268.1,142.9,268.2,142.7,268.1
		C142.8,268.2,142.8,268.1,142.7,268.1z M146.3,264.3h0.5h0.5c0,0,0,0,0.1,0c0,0,0,0,0,0l-0.2-0.5c0-0.1,0-0.2-0.1-0.2
		c0-0.1,0-0.2-0.1-0.3c0-0.1-0.1-0.2-0.1-0.3c0-0.1,0-0.2-0.1-0.3c0-0.2-0.1-0.4-0.2-0.5c0-0.1-0.1-0.2-0.1-0.3c0-0.1,0-0.2-0.1-0.2
		c0,0,0,0,0,0l0,0l-0.2,0.5l-0.1,0.3l-0.1,0.3l-0.1,0.3c0,0.1-0.1,0.2-0.1,0.3l-0.1,0.5l-0.2,0.5c0,0,0,0,0,0.1c0,0,0,0,0.1,0
		L146.3,264.3z"/>
	<path class="st0" d="M155,268.1h-0.3h-0.6l-0.6,0c-0.1,0-0.2,0-0.3,0c-0.1,0-0.2,0-0.3,0h-0.6c0,0-0.1,0-0.1,0c0,0,0-0.1,0-0.1
		l0-0.6c0-0.1,0-0.2,0-0.3v-0.3v-0.6v-0.3c0,0,0-0.1,0-0.3v-0.6c0-0.1,0-0.2,0-0.3v-0.3v-0.6v-0.3c0,0,0-0.1,0-0.3l0-0.6v-0.6v-0.6
		l0-0.6v-0.6c0-0.1,0-0.2,0-0.3v-0.3v-0.6c0,0,0-0.1,0-0.1c0,0,0.1-0.1,0.1-0.1c0.1,0,0.2,0,0.3,0c0.1,0,0.2,0,0.3,0h0.5h0.5
		c0,0,0.1,0,0.1,0c0,0,0,0.1,0,0.1c0,0.1,0,0.2,0,0.3v0.4v0.5v0.6v0.6l0,0.6v0.6l0,0.6l0,0.6l0,0.6v0.6l0,0.6l0,0.6
		c0,0.1,0,0.1,0.1,0.1h0.5c0.1,0,0.2,0,0.3,0c0.1,0,0.2,0,0.3,0h0.5h0.5l0.5,0l0.5,0c0,0,0.1,0,0.1,0c0,0,0,0.1,0,0.1v0.5l0,0.5v0.5
		c0,0,0,0.1,0,0.1c0,0-0.1,0.1-0.1,0.1h-0.6l-0.6,0h-0.6l-0.6,0C155.1,268.2,155,268.1,155,268.1z"/>
	<path class="st0" d="M166.2,268.2h-0.6H165c-0.1,0-0.2,0-0.3,0c-0.1,0-0.2,0-0.3,0h-0.6c0,0-0.1,0-0.1,0c0,0,0-0.1,0-0.1v-0.6
		l0-0.6v-0.6c0-0.1,0-0.2,0-0.3v-0.3v-0.6v-0.6v-0.6l0-0.6c0-0.1,0-0.2,0-0.3v-0.3l0-0.6v-0.6V261v-0.6v-0.6l0-0.6c0,0,0-0.1,0-0.1
		c0,0,0.1-0.1,0.1-0.1h0.6c0.1,0,0.2,0,0.3,0c0.1,0,0.2,0,0.3,0h0.5h0.6h0.6l0.6,0h0.6h0.6c0.1,0,0.2,0,0.3,0c0.1,0,0.2,0,0.3,0
		c0,0,0.1,0,0.1,0c0,0,0,0.1,0,0.1l0,0.5l0,0.5c0,0.1,0,0.2,0,0.2c0,0.1,0,0.1,0,0.3c0,0,0,0.1-0.1,0.1c0,0-0.1,0-0.1,0h-0.6h-0.3
		l-0.3,0c-0.1,0-0.2,0-0.3,0c-0.1,0-0.2,0-0.3,0h-0.6h-0.6h-0.6c0,0,0,0-0.1,0c0,0,0,0,0,0.1v0.5c0,0.1,0,0.2,0,0.3
		c0,0.1,0,0.1,0,0.2s0,0.2,0,0.2c0,0.1,0,0.1,0,0.3c0,0,0,0,0,0.1c0,0,0,0,0.1,0h0.5h0.5h0.5h0.5h0.5c0,0,0.1,0,0.1,0
		c0,0,0,0.1,0,0.1c0,0.1,0,0.3,0,0.3c0,0.1,0,0.2,0,0.3c0,0.1,0,0.3,0,0.3c0,0.1,0,0.2,0,0.3c0,0,0,0.1,0,0.1c0,0-0.1,0.1-0.1,0.1
		h-0.5c-0.1,0-0.2,0-0.3,0c-0.1,0-0.2,0-0.3,0l-0.5,0l-0.5,0h-0.5c0,0,0,0-0.1,0c0,0,0,0,0,0.1c0,0.2,0,0.3,0,0.3v0.3v0.6l0,0.6
		c0,0,0,0,0,0.1c0,0,0,0,0.1,0l0.6,0l0.6,0l0.6,0h0.6h0.3c0,0,0.1,0,0.3,0l0.6,0c0,0,0.1,0,0.1,0.1c0,0,0,0.1,0,0.1v0.5v0.5v0.2
		l0,0.3c0,0,0,0.1-0.1,0.1c0,0-0.1,0-0.1,0h-0.6h-0.6c-0.1,0-0.2,0-0.3,0c-0.1,0-0.2,0-0.3,0h-0.6H166.2z"/>
	<path class="st0" d="M173.9,268.3c0,0-0.1,0-0.2,0c-0.2,0-0.4-0.1-0.6-0.1c-0.2-0.1-0.4-0.1-0.5-0.2c-0.1,0-0.2-0.1-0.5-0.2
		c-0.2-0.1-0.4-0.2-0.5-0.3c-0.1-0.1-0.3-0.2-0.5-0.3c0,0-0.1-0.1-0.1-0.1c0,0,0-0.1,0-0.1c0.1-0.1,0.1-0.2,0.2-0.2
		c0-0.1,0.1-0.1,0.1-0.2l0.3-0.4l0.3-0.4c0,0,0.1-0.1,0.1-0.1c0,0,0.1,0,0.1,0l0.4,0.3c0.2,0.1,0.3,0.2,0.5,0.2
		c0.2,0.1,0.4,0.1,0.5,0.1c0.2,0,0.3,0,0.5,0c0.2,0,0.4,0,0.5-0.1c0.2-0.1,0.4-0.1,0.5-0.3c0.1-0.1,0.2-0.3,0.2-0.5
		c0-0.2-0.1-0.3-0.2-0.5c-0.1-0.1-0.2-0.2-0.4-0.3c-0.1-0.1-0.3-0.1-0.5-0.2c-0.1,0-0.2-0.1-0.5-0.2c-0.1,0-0.2-0.1-0.2-0.1
		c-0.1,0-0.2-0.1-0.3-0.1c0,0-0.2-0.1-0.5-0.3c0,0-0.1-0.1-0.2-0.1c-0.1-0.1-0.2-0.1-0.3-0.2c-0.1-0.1-0.3-0.2-0.4-0.4
		c-0.1-0.2-0.3-0.3-0.4-0.5c-0.1-0.2-0.2-0.4-0.2-0.5c0-0.2,0-0.4,0-0.6c0-0.2,0-0.4,0-0.5c0-0.2,0.1-0.4,0.2-0.5
		c0.1-0.2,0.2-0.4,0.3-0.5c0.1-0.2,0.3-0.3,0.4-0.4c0.1-0.1,0.3-0.2,0.5-0.3c0.2-0.1,0.3-0.2,0.5-0.2c0.2-0.1,0.4-0.1,0.5-0.1
		c0.2,0,0.4,0,0.6,0c0.2,0,0.4,0,0.6,0c0.1,0,0.3,0.1,0.6,0.1c0.2,0.1,0.4,0.1,0.6,0.2c0.1,0.1,0.3,0.2,0.5,0.3
		c0.2,0.1,0.3,0.2,0.5,0.4c0,0,0,0.1,0,0.1c0,0,0,0.1,0,0.1l-0.4,0.4c-0.1,0.1-0.1,0.1-0.2,0.2c-0.1,0-0.1,0.1-0.2,0.2l-0.4,0.4
		c0,0-0.1,0-0.1,0c0,0-0.1,0-0.1,0c0,0-0.1-0.1-0.1-0.1c-0.1-0.1-0.2-0.1-0.3-0.2c-0.2-0.1-0.4-0.2-0.5-0.2c-0.1,0-0.3,0-0.5,0
		c-0.2,0-0.4,0-0.5,0.1c-0.2,0-0.3,0.1-0.4,0.2c-0.1,0.1-0.2,0.3-0.2,0.4c0,0.2,0.1,0.4,0.3,0.5c0.1,0.1,0.3,0.2,0.6,0.3
		c0.1,0,0.1,0.1,0.2,0.1c0.1,0,0.2,0.1,0.3,0.2l0.5,0.2c0.2,0.1,0.4,0.2,0.5,0.2c0.1,0,0.2,0.1,0.5,0.3c0.2,0.1,0.3,0.2,0.4,0.3
		c0.1,0.1,0.3,0.3,0.4,0.4c0.1,0.1,0.2,0.3,0.3,0.5c0.1,0.2,0.1,0.4,0.1,0.5c0,0.2,0,0.4,0,0.5c0,0.1,0,0.3-0.1,0.6
		c0,0.2-0.1,0.4-0.2,0.6c-0.1,0.2-0.2,0.3-0.3,0.5c-0.1,0.2-0.3,0.3-0.4,0.4c-0.1,0.1-0.3,0.2-0.5,0.3c-0.2,0.1-0.3,0.1-0.5,0.2
		c-0.2,0.1-0.4,0.1-0.6,0.1c-0.1,0-0.3,0-0.6,0C174,268.3,173.9,268.3,173.9,268.3z"/>
	<path class="st0" d="M181.3,268.2c0,0-0.1,0-0.1-0.1c0,0-0.1-0.1-0.1-0.1l0-0.6l0-0.6l0-0.3v-0.3v-0.3l0-0.3l0-0.6l0-0.6l0-0.6
		v-0.6l0-0.6l0-0.6v-0.6l0-0.6c0,0,0,0,0-0.1c0,0,0,0-0.1,0h-0.3c0,0-0.1,0-0.3,0l-0.5,0h-0.5h-0.3c0,0-0.1,0-0.3,0
		c0,0-0.1,0-0.1-0.1c0,0,0-0.1,0-0.1c0-0.1,0-0.2,0-0.3c0-0.1,0-0.2,0-0.3l0-0.5c0-0.1,0-0.2,0-0.3c0-0.1,0-0.1,0-0.2
		c0,0,0-0.1,0.1-0.1c0,0,0.1-0.1,0.1-0.1l0.6,0h0.6l0.6,0h0.6h0.6h0.6h0.5h0.6h0.6h0.6h0.6c0,0,0.1,0,0.1,0.1c0,0,0.1,0.1,0.1,0.1
		v0.5v0.5c0,0.1,0,0.2,0,0.2c0,0.1,0,0.1,0,0.3c0,0,0,0.1,0,0.1c0,0-0.1,0-0.1,0l-0.5,0l-0.2,0h-0.3h-0.5h-0.5c-0.1,0-0.1,0-0.1,0.1
		l0,0.6l0,0.6l0,0.6l0,0.3v0.3v0.6v0.6l0,0.6l0,0.3v0.3v0.6l0,0.6l0,0.3l0,0.3v0.6c0,0,0,0.1-0.1,0.1c0,0-0.1,0-0.1,0
		c-0.1,0-0.2,0-0.3,0h-0.3h-0.5H181.3z"/>
	<path class="st0" d="M185.9,268.1c0,0,0-0.1,0-0.1c0-0.2,0.1-0.3,0.1-0.3l0.1-0.3c0-0.1,0.1-0.2,0.1-0.3l0.1-0.3
		c0-0.1,0.1-0.2,0.1-0.3c0-0.1,0-0.2,0.1-0.2c0-0.1,0.1-0.2,0.1-0.3c0-0.1,0.1-0.2,0.1-0.3l0.2-0.5c0.1-0.2,0.1-0.4,0.2-0.5
		c0-0.1,0-0.1,0.1-0.2c0,0,0-0.1,0-0.1c0,0,0-0.1,0.1-0.3l0.1-0.3l0.1-0.3l0.2-0.5c0.1-0.2,0.1-0.4,0.2-0.5c0-0.1,0.1-0.2,0.1-0.3
		c0-0.1,0-0.2,0.1-0.3c0-0.1,0.1-0.2,0.1-0.3c0-0.1,0.1-0.2,0.1-0.3l0.2-0.6l0.2-0.5c0-0.1,0.1-0.2,0.1-0.3c0-0.1,0.1-0.2,0.1-0.3
		l0.2-0.5c0-0.1,0.1-0.2,0.2-0.2h0.6h0.6c0.1,0,0.2,0,0.3,0c0.1,0,0.2,0,0.3,0c0,0,0.1,0,0.1,0c0,0,0.1,0.1,0.1,0.1
		c0,0.1,0.1,0.2,0.1,0.3c0,0.1,0,0.2,0.1,0.3l0.1,0.3l0.1,0.3c0,0.2,0.1,0.3,0.1,0.3c0,0.1,0.1,0.2,0.1,0.3l0.1,0.3l0.1,0.3l0.2,0.6
		l0.2,0.5l0.2,0.5l0.2,0.5c0,0.1,0.1,0.2,0.1,0.3c0,0.1,0,0.2,0.1,0.2c0,0,0.1,0.2,0.2,0.5l0.2,0.5c0,0.2,0.1,0.3,0.1,0.3l0.1,0.3
		c0,0.1,0.1,0.2,0.1,0.3c0,0.1,0.1,0.2,0.1,0.3l0.2,0.6l0.2,0.5c0,0.1,0.1,0.2,0.1,0.3c0,0.1,0.1,0.2,0.1,0.3v0c0,0,0,0.1,0,0.1
		c0,0-0.1,0-0.1,0c-0.1,0-0.2,0-0.3,0c-0.1,0-0.2,0-0.3,0h-0.5c-0.1,0-0.2,0-0.3,0c-0.1,0-0.2,0-0.3,0c0,0-0.1,0-0.1,0
		c0,0-0.1-0.1-0.1-0.1c-0.1-0.2-0.1-0.4-0.2-0.6l-0.2-0.6l-0.2-0.6c0-0.1-0.1-0.1-0.1-0.1c-0.2,0-0.3,0-0.3,0h-0.3H190
		c0,0-0.1,0-0.3,0l-0.6,0h-0.6c-0.1,0-0.1,0-0.1,0.1c-0.1,0.2-0.1,0.4-0.2,0.6l-0.2,0.6c0,0.1,0,0.2-0.1,0.3c0,0.1-0.1,0.2-0.1,0.3
		c0,0,0,0.1-0.1,0.1c0,0-0.1,0-0.2,0h-0.5h-0.5c-0.1,0-0.2,0-0.3,0C186.2,268.1,186.1,268.2,185.9,268.1
		C185.9,268.2,185.9,268.1,185.9,268.1z M189.5,264.3h0.5h0.5c0,0,0,0,0.1,0c0,0,0,0,0,0l-0.2-0.5c0-0.1,0-0.2-0.1-0.2
		c0-0.1,0-0.2-0.1-0.3c0-0.1-0.1-0.2-0.1-0.3c0-0.1,0-0.2-0.1-0.3c0-0.2-0.1-0.4-0.2-0.5c0-0.1-0.1-0.2-0.1-0.3c0-0.1,0-0.2-0.1-0.2
		c0,0,0,0,0,0l0,0l-0.2,0.5l-0.1,0.3l-0.1,0.3l-0.1,0.3c0,0.1-0.1,0.2-0.1,0.3l-0.1,0.5l-0.2,0.5c0,0,0,0,0,0.1c0,0,0,0,0.1,0
		L189.5,264.3z"/>
	<path class="st0" d="M196.6,268.2c0,0-0.1,0-0.1-0.1c0,0-0.1-0.1-0.1-0.1l0-0.6l0-0.6l0-0.3v-0.3v-0.3l0-0.3l0-0.6l0-0.6l0-0.6
		v-0.6l0-0.6l0-0.6v-0.6l0-0.6c0,0,0,0,0-0.1c0,0,0,0-0.1,0h-0.3c0,0-0.1,0-0.3,0l-0.5,0h-0.5h-0.3c0,0-0.1,0-0.3,0
		c0,0-0.1,0-0.1-0.1c0,0,0-0.1,0-0.1c0-0.1,0-0.2,0-0.3c0-0.1,0-0.2,0-0.3l0-0.5c0-0.1,0-0.2,0-0.3c0-0.1,0-0.1,0-0.2
		c0,0,0-0.1,0.1-0.1c0,0,0.1-0.1,0.1-0.1l0.6,0h0.6l0.6,0h0.6h0.6h0.6h0.5h0.6h0.6h0.6h0.6c0,0,0.1,0,0.1,0.1c0,0,0.1,0.1,0.1,0.1
		v0.5v0.5c0,0.1,0,0.2,0,0.2c0,0.1,0,0.1,0,0.3c0,0,0,0.1,0,0.1c0,0-0.1,0-0.1,0l-0.5,0l-0.2,0h-0.3h-0.5h-0.5c-0.1,0-0.1,0-0.1,0.1
		l0,0.6l0,0.6l0,0.6l0,0.3v0.3v0.6v0.6l0,0.6l0,0.3v0.3v0.6l0,0.6l0,0.3l0,0.3v0.6c0,0,0,0.1-0.1,0.1c0,0-0.1,0-0.1,0
		c-0.1,0-0.2,0-0.3,0h-0.3h-0.5H196.6z"/>
	<path class="st0" d="M205.2,268.2h-0.6H204c-0.1,0-0.2,0-0.3,0c-0.1,0-0.2,0-0.3,0h-0.6c0,0-0.1,0-0.1,0c0,0,0-0.1,0-0.1v-0.6
		l0-0.6v-0.6c0-0.1,0-0.2,0-0.3v-0.3v-0.6v-0.6v-0.6l0-0.6c0-0.1,0-0.2,0-0.3v-0.3l0-0.6v-0.6V261v-0.6v-0.6l0-0.6c0,0,0-0.1,0-0.1
		c0,0,0.1-0.1,0.1-0.1h0.6c0.1,0,0.2,0,0.3,0c0.1,0,0.2,0,0.3,0h0.5h0.6h0.6l0.6,0h0.6h0.6c0.1,0,0.2,0,0.3,0c0.1,0,0.2,0,0.3,0
		c0,0,0.1,0,0.1,0c0,0,0,0.1,0,0.1l0,0.5l0,0.5c0,0.1,0,0.2,0,0.2c0,0.1,0,0.1,0,0.3c0,0,0,0.1-0.1,0.1c0,0-0.1,0-0.1,0h-0.6h-0.3
		l-0.3,0c-0.1,0-0.2,0-0.3,0c-0.1,0-0.2,0-0.3,0h-0.6h-0.6h-0.6c0,0,0,0-0.1,0c0,0,0,0,0,0.1v0.5c0,0.1,0,0.2,0,0.3
		c0,0.1,0,0.1,0,0.2s0,0.2,0,0.2c0,0.1,0,0.1,0,0.3c0,0,0,0,0,0.1c0,0,0,0,0.1,0h0.5h0.5h0.5h0.5h0.5c0,0,0.1,0,0.1,0
		c0,0,0,0.1,0,0.1c0,0.1,0,0.3,0,0.3c0,0.1,0,0.2,0,0.3c0,0.1,0,0.3,0,0.3c0,0.1,0,0.2,0,0.3c0,0,0,0.1,0,0.1c0,0-0.1,0.1-0.1,0.1
		h-0.5c-0.1,0-0.2,0-0.3,0c-0.1,0-0.2,0-0.3,0l-0.5,0l-0.5,0h-0.5c0,0,0,0-0.1,0c0,0,0,0,0,0.1c0,0.2,0,0.3,0,0.3v0.3v0.6l0,0.6
		c0,0,0,0,0,0.1c0,0,0,0,0.1,0l0.6,0l0.6,0l0.6,0h0.6h0.3c0,0,0.1,0,0.3,0l0.6,0c0,0,0.1,0,0.1,0.1c0,0,0,0.1,0,0.1v0.5v0.5v0.2
		l0,0.3c0,0,0,0.1-0.1,0.1c0,0-0.1,0-0.1,0h-0.6H207c-0.1,0-0.2,0-0.3,0c-0.1,0-0.2,0-0.3,0h-0.6H205.2z"/>
	<path class="st0" d="M217.3,268.3c-0.2,0-0.4-0.1-0.6-0.1c-0.2-0.1-0.4-0.1-0.5-0.2c-0.2-0.1-0.4-0.2-0.5-0.3
		c-0.2-0.1-0.3-0.2-0.4-0.4c-0.1-0.1-0.2-0.2-0.4-0.5c-0.1-0.1-0.2-0.3-0.3-0.5c-0.1-0.2-0.2-0.4-0.3-0.5c0-0.1-0.1-0.3-0.2-0.5
		c0-0.2-0.1-0.4-0.1-0.6c0-0.2-0.1-0.4-0.1-0.6c0-0.3,0-0.5,0-0.6c0-0.1,0-0.3,0-0.6c0,0,0-0.2,0.1-0.6c0-0.2,0.1-0.4,0.1-0.6
		c0-0.2,0.1-0.4,0.2-0.5c0.1-0.2,0.2-0.3,0.3-0.5c0.1-0.1,0.2-0.3,0.3-0.5c0.1-0.1,0.2-0.3,0.4-0.4c0.1-0.1,0.3-0.3,0.4-0.4
		c0.2-0.1,0.3-0.2,0.5-0.3c0.2-0.1,0.4-0.2,0.5-0.2c0.1,0,0.3-0.1,0.6-0.1c0.2,0,0.4,0,0.6,0c0.1,0,0.3,0,0.5,0
		c0.2,0,0.4,0.1,0.5,0.1c0.1,0,0.2,0.1,0.3,0.1c0.1,0,0.2,0.1,0.2,0.1c0.1,0.1,0.3,0.1,0.5,0.3c0.2,0.1,0.3,0.2,0.4,0.3
		c0.1,0.1,0.2,0.2,0.4,0.4c0,0,0,0.1,0,0.1c0,0,0,0.1,0,0.1l-0.3,0.4c-0.1,0.1-0.1,0.1-0.2,0.2c-0.1,0-0.1,0.1-0.2,0.2l-0.3,0.4
		c0,0-0.1,0-0.1,0c0,0-0.1,0-0.1-0.1c-0.2-0.2-0.3-0.3-0.5-0.4c-0.2-0.1-0.4-0.2-0.5-0.2c-0.2,0-0.4-0.1-0.6-0.1
		c-0.2,0-0.4,0-0.6,0.1c-0.2,0-0.3,0.1-0.5,0.2c-0.2,0.1-0.3,0.2-0.4,0.4c-0.1,0.1-0.2,0.3-0.3,0.5c-0.1,0.2-0.1,0.3-0.2,0.5
		c0,0.1-0.1,0.3-0.1,0.5c0,0.3,0,0.5,0,0.6c0,0.2,0,0.4,0,0.6c0,0.2,0,0.4,0.1,0.6c0,0,0,0.1,0.1,0.2c0,0.1,0.1,0.2,0.1,0.3
		c0.1,0.2,0.2,0.3,0.3,0.5c0.1,0.2,0.3,0.3,0.4,0.4c0.1,0.1,0.3,0.2,0.5,0.2c0.2,0,0.4,0.1,0.6,0.1c0.2,0,0.4,0,0.6-0.1
		c0.2,0,0.4-0.1,0.6-0.3c0.1-0.1,0.3-0.2,0.5-0.4c0,0,0.1,0,0.1,0c0,0,0.1,0,0.1,0c0.1,0.1,0.1,0.1,0.2,0.2c0.1,0,0.1,0.1,0.2,0.2
		c0.2,0.2,0.3,0.3,0.4,0.3c0,0,0.1,0.1,0.4,0.3c0,0,0.1,0.1,0.1,0.1c0,0,0,0.1,0,0.1c-0.1,0.1-0.2,0.2-0.4,0.4
		c-0.2,0.2-0.3,0.3-0.4,0.4c-0.1,0.1-0.3,0.2-0.5,0.3c-0.2,0.1-0.4,0.2-0.5,0.2c-0.2,0-0.4,0.1-0.6,0.1c-0.2,0-0.4,0-0.6,0
		C217.6,268.3,217.5,268.3,217.3,268.3z"/>
	<path class="st0" d="M225.6,268.3c-0.1,0-0.3-0.1-0.6-0.1c-0.2-0.1-0.4-0.1-0.5-0.2c-0.2-0.1-0.4-0.2-0.5-0.3
		c-0.2-0.1-0.3-0.2-0.4-0.4c-0.1-0.1-0.2-0.2-0.4-0.5c-0.1-0.2-0.2-0.3-0.3-0.5c-0.1-0.2-0.2-0.3-0.2-0.5c0-0.1-0.1-0.3-0.2-0.5
		c0-0.1,0-0.1-0.1-0.3c0-0.1-0.1-0.2-0.1-0.3c0-0.2-0.1-0.4-0.1-0.6c0-0.3,0-0.5,0-0.6c0-0.3,0-0.5,0-0.6l0.1-0.6
		c0-0.3,0.1-0.4,0.1-0.6c0-0.1,0.1-0.3,0.2-0.5c0.1-0.2,0.2-0.4,0.2-0.5c0-0.1,0.2-0.3,0.3-0.5c0.1-0.2,0.3-0.3,0.4-0.4
		c0,0,0.1-0.1,0.2-0.2c0.1-0.1,0.2-0.1,0.2-0.2c0.1-0.1,0.3-0.2,0.5-0.3c0.1-0.1,0.3-0.1,0.5-0.2c0.2,0,0.4-0.1,0.6-0.1
		c0.2,0,0.4,0,0.6,0c0.1,0,0.2,0,0.3,0c0.1,0,0.2,0,0.2,0c0.2,0,0.4,0.1,0.6,0.1c0.2,0,0.3,0.1,0.5,0.2c0.2,0.1,0.4,0.2,0.5,0.3
		c0.1,0.1,0.3,0.2,0.5,0.4c0,0,0.2,0.2,0.4,0.4c0.1,0.2,0.3,0.4,0.3,0.5c0.1,0.2,0.2,0.3,0.2,0.5c0.1,0.2,0.1,0.4,0.2,0.5
		c0.1,0.2,0.1,0.4,0.1,0.6c0,0.1,0,0.3,0.1,0.6c0,0.1,0,0.3,0,0.6c0,0.3,0,0.5,0,0.6c0,0.1,0,0.3-0.1,0.6c0,0.1-0.1,0.2-0.1,0.6
		c0,0.1-0.1,0.2-0.1,0.3c0,0.1-0.1,0.2-0.1,0.2c-0.1,0.2-0.2,0.4-0.2,0.5c-0.1,0.2-0.2,0.4-0.3,0.5c-0.1,0.2-0.2,0.3-0.4,0.4
		c-0.1,0.1-0.3,0.3-0.5,0.4c-0.1,0.1-0.3,0.2-0.5,0.3c-0.2,0.1-0.3,0.2-0.5,0.2c-0.2,0.1-0.4,0.1-0.6,0.1c-0.2,0-0.4,0-0.6,0
		C226,268.3,225.8,268.3,225.6,268.3z M226.7,266.3c0.2,0,0.3-0.1,0.5-0.2c0.1-0.1,0.3-0.2,0.4-0.4c0.1-0.1,0.2-0.3,0.3-0.5
		c0.1-0.2,0.1-0.3,0.2-0.5c0.1-0.2,0.1-0.4,0.1-0.6c0-0.1,0-0.3,0-0.5c0-0.3,0-0.5,0-0.6c0-0.3-0.1-0.4-0.1-0.5
		c0-0.2-0.1-0.3-0.2-0.5c-0.1-0.1-0.2-0.3-0.3-0.5c-0.2-0.2-0.3-0.3-0.4-0.4c-0.2-0.1-0.3-0.2-0.5-0.2c-0.1,0-0.3-0.1-0.6-0.1
		c-0.2,0-0.4,0-0.5,0.1c-0.2,0-0.3,0.1-0.5,0.2c-0.1,0.1-0.3,0.2-0.4,0.4c-0.1,0.2-0.2,0.3-0.3,0.5c-0.1,0.1-0.1,0.3-0.2,0.5
		c0,0.2-0.1,0.4-0.1,0.5c0,0.2,0,0.4,0,0.6c0,0.1,0,0.2,0,0.5c0,0.2,0.1,0.4,0.1,0.6c0,0.1,0.1,0.3,0.2,0.5c0.1,0.2,0.2,0.4,0.3,0.5
		c0.1,0.2,0.2,0.3,0.4,0.4c0.2,0.1,0.3,0.2,0.5,0.2c0.1,0,0.3,0.1,0.6,0.1C226.4,266.4,226.6,266.4,226.7,266.3z"/>
	<path class="st0" d="M232.4,268.1c-0.2-0.1-0.3-0.2-0.4-0.4c-0.1-0.2-0.1-0.3-0.1-0.5c0-0.2,0-0.4,0.1-0.5c0.1-0.2,0.2-0.3,0.4-0.4
		c0.2-0.1,0.3-0.1,0.5-0.1c0.2,0,0.4,0,0.5,0.1c0.2,0.1,0.3,0.2,0.4,0.4c0.1,0.2,0.1,0.3,0.1,0.5c0,0.2,0,0.4-0.1,0.5
		c-0.1,0.2-0.2,0.3-0.4,0.4c-0.2,0.1-0.3,0.1-0.5,0.1C232.8,268.2,232.6,268.1,232.4,268.1z"/>
</g>
<path class="st0" d="M178.8,82.4c-4.8,0-8.8,3.9-8.8,8.8c0,1.2,0.2,2.4,0.7,3.4l8.1,14.5l8.1-14.5c0.4-1,0.7-2.2,0.7-3.4
	C187.6,86.3,183.7,82.4,178.8,82.4z M183,98.1l-4.2-3.1l-4.2,3.1l1.6-5L172,90h5.2l1.6-5l1.6,5h5.2l-4.2,3.1L183,98.1z"/>
<g>
	<g>
		
			<rect x="138.6" y="199.8" transform="matrix(0.7071 -0.7071 0.7071 0.7071 -97.5204 167.928)" class="st0" width="30.8" height="3.7"/>
	</g>
</g>
<g>
	<g>
		
			<rect x="190.2" y="148.2" transform="matrix(0.7071 -0.7071 0.7071 0.7071 -45.91 189.311)" class="st0" width="30.8" height="3.7"/>
	</g>
</g>
<path class="st1" d="M194,209.9c-2.5,2.2-5.8,3.7-9.7,4.5c-2.7,0.5-5.5,0.7-8.4,0.5c-2.4-0.2-4.8-0.5-7.2-1
	c-2.3-0.6-4.5-1.4-6.8-2.4c-2.6-1.3-4.7-2.4-6.1-3.4c-0.2-0.2-0.3-0.2-0.5,0.1l-1.1,1.2l-0.3,0.1c-0.2,0.2-0.2,0.5,0,0.6
	c0.3,0.2,1.3,0.9,3.3,2.2c0.8,0.5,2.2,1.1,4.1,2c1.4,0.6,3,1.2,4.8,1.9l4.8,1.2c1,0.2,2.6,0.3,5,0.5c2.5,0.2,3.8,0.3,3.8,0.3
	s0.4-0.1,1.3-0.2c2.1-0.2,3.8-0.4,4.9-0.7c1.8-0.3,3.3-0.7,4.6-1.2c1.5-0.8,2.9-1.5,4-2.2c1.5-1.1,2.6-2,3.2-2.7
	c1-1.1,1.9-2.3,2.6-3.4c0.6-0.9,1.2-2.2,1.7-3.9c0.1-0.3,0.2-0.5,0.2-0.8l-3.1-3C198.6,203.9,196.9,207.3,194,209.9z"/>
<path class="st1" d="M156.8,158.1c0.5,1.8,0.9,3,1.3,3.7c0.4,1,1.1,2.1,2.1,3.4c1.1,1.2,2.1,2.2,3.2,3.2c0.8,0.6,1.5,1.1,2.2,1.5
	c0.7,0.4,1.4,0.8,2,1.2l0.5,0.3c2.1,1.3,3.6,2.1,4.4,2.6l0.9,0.4l-16.8-16.8C156.8,157.8,156.8,158,156.8,158.1z"/>
<polygon class="st1" points="179.3,173.7 176.9,172.4 178.7,174.3 "/>
<path class="st1" d="M160.4,153.2c0.1-2.1,0.8-4.1,1.9-6c1.1-1.9,2.6-3.4,4.4-4.8c2.3-1.7,5.1-2.9,8.4-3.4c2.1-0.5,4.7-0.6,7.7-0.4
	c3.1,0.2,5.7,0.6,7.8,1.3c1.9,0.6,4.4,2,7.4,4c0.2,0.2,0.3,0.3,0.4,0.3c0.2,0.2,0.3,0.2,0.5,0l1.6-1.4c0.3-0.1,0.3-0.2,0-0.5
	l-2.9-2.1c-1.3-0.7-2.8-1.4-4.6-2.2c-1.5-0.7-3.2-1.2-5-1.6c-1.9-0.3-3.7-0.5-5.4-0.6c-1.7-0.1-3.3-0.1-4.9,0
	c-1.5,0-3.1,0.2-4.7,0.7c-2,0.6-3.5,1-4.5,1.5c-1.7,0.7-3,1.3-4,1.9c-0.7,0.6-1.7,1.5-3.2,2.9c-0.7,0.6-1.5,1.7-2.5,3.2
	c-0.5,1-0.9,2.2-1.3,3.8c-0.3,0.9-0.5,1.8-0.7,2.7l3.6,3.6C160.3,155.1,160.3,154.2,160.4,153.2z"/>
<path class="st1" d="M162.7,202.4c1.6,0.9,3.2,1.7,5,2.4c1.7,0.6,3.4,1.2,5.3,1.5c1.7,0.3,3.5,0.4,5.5,0.4c1.2,0,3.5-0.1,5.8-0.7
	c1.8-0.5,3.8-1.3,5.1-2.7c1.2-1.3,2.1-3,2.1-5.4c0-1.9-0.8-3.6-2.1-5c-1.1-1.2-2.5-2.4-4.3-3.4c-1.4-0.8-3.1-1.5-5-2.4
	c-1.6-0.7-3.3-1.4-5.1-2.1c-0.4-0.1-0.7-0.3-1.1-0.4l-15.2,15.2C159.9,200.7,161.3,201.6,162.7,202.4z"/>
<path class="st1" d="M196,154.9c-1.1-1.1-3.4-3.3-5.3-4.5c-1.4-0.9-3.1-1.7-5.2-2.2c-1.6-0.4-3.5-0.6-5.6-0.6
	c-1.7,0-3.5,0.2-5.2,0.6c-1.8,0.5-3.4,1.2-4.7,2.3c-1.4,1.1-2.2,2.6-2.2,4.5c0,2.2,1.1,3.9,3.2,5.5c1.5,1.1,3.5,2.1,5.9,3.2
	c1.8,0.8,3.9,1.8,6.1,2.7c0.8,0.3,1.6,0.6,2.4,0.9L197,156L196,154.9z"/>
<path class="st1" d="M202.6,195.2c-0.1-1-0.4-2.2-0.8-3.8c-0.5-1.5-1-2.6-1.5-3.4c-0.8-1.2-1.7-2.2-2.6-3.1c-0.8-0.9-2-1.9-3.5-2.9
	c-1.3-1.1-2.7-2.1-4-2.8c-1.2-0.7-2.8-1.5-4.8-2.5l-2.5-1.2l-1.6,1.6l2.5,2.5l0.3,0.1c2,1,3.7,1.9,5.1,2.8c2.7,1.7,4.8,3.6,6.4,5.6
	c1.6,2,2.7,4.2,3.2,6.4l3.9,3.9C202.8,197.3,202.8,196.3,202.6,195.2z"/>
<path class="st0" d="M215.2,211.1c0.1,0,0.2,0,0.3,0l-5-5c-0.4,1.3-0.9,2.6-1.5,3.8l3.8,3.8l0-0.2l1.3,1.3l2.4-2.4L215.2,211.1z"/>
<path class="st0" d="M180.6,177.7c0.9,0.4,1.8,0.9,2.9,1.5l0.4,0.2l-2.5-2.5L180.6,177.7z"/>
<path class="st0" d="M136.4,131.9l-1.8,0.7l-0.8,2.1l14.4,14.4c0.3-1.4,0.7-2.8,1.3-4L136.4,131.9z"/>
<path class="st0" d="M136.4,131.9l16.5-6.1c-10.8-0.7-24.9-5.3-35.2-10c4.7,10.3,9.3,24.4,10,35.2l6.2-16.4l0.8-2.1L136.4,131.9z"/>
<polygon class="st0" points="212.8,213.7 212.9,227.4 212.8,228.2 233.9,249.3 233.8,234.4 214.1,214.8 212.8,213.5 "/>
<path class="st0" d="M216.5,212.4l19.6,19.6l14.6,0.4l-21-21c-4.8,0.4-9.6,0.4-14.2-0.3c-0.1,0-0.2,0-0.3,0L216.5,212.4z"/>
<path class="st0" d="M198.5,157.4L197,156l-11.6,11.6c1,0.4,2,0.8,3,1.2c0.2,0.1,0.5,0.2,0.7,0.3l35.5-35.5l-0.7-1.8L222,131
	l-11.1,11.1l1.3,1.3L198.5,157.4z"/>
<path class="st0" d="M145.5,212c1.7-2,1.6-2.1,3.3-4.2c1.7-2,1.7-2,3.4-4.1c1.7-2,1.6-2.1,3.3-4.1c0.3-0.4,0.8-0.6,1.3-0.6
	c0.4,0,0.9,0.2,1.3,0.4c0.2,0.1,0.3,0.2,0.5,0.4l15.2-15.2c-1.2-0.5-2.5-1-3.8-1.5l-27,27l0.2,0l-1.3,1.3l2.4,2.4l0.8-0.8
	C145.1,212.6,145.2,212.3,145.5,212z"/>
<path class="st0" d="M202.2,151c-1.9,1.9-1.8,2-3.7,3.9l7.5-7.6C204.1,149.2,204.1,149.1,202.2,151z"/>
<path class="st0" d="M224.7,133.6l6.1,16.5c0.7-10.8,5.3-24.9,10-35.2c-10.3,4.7-24.4,9.3-35.2,10L222,131l2.1,0.8L224.7,133.6z"/>
<polygon class="st0" points="143,210 129.2,210.1 128.4,210 107.4,231.1 122.2,231 141.9,211.3 143.2,210 "/>
<path class="st0" d="M145,213.1c0,0,0-0.1,0-0.1l-0.8,0.8l-19.6,19.6l-0.4,14.6l21-21c-0.4-4.3-0.4-8.7,0.1-12.9
	C145.1,213.8,145,213.5,145,213.1z"/>
<path class="st0" d="M211,204.4c0.5-2,0.8-4.2,0.8-6.5c0-1.9-0.3-3.7-0.5-5.3c-0.3-2-0.8-3.8-1.5-5.6c-0.7-1.8-1.6-3.6-2.7-5.1
	c-1.1-1.6-2.4-3-3.8-4.3c-1.4-1.3-3-2.4-4.6-3.5c-1.6-1.1-3.2-2.1-5-3c-1.5-0.8-3-1.4-4.5-2.1c-0.2-0.1-0.5-0.2-0.7-0.3
	c-1-0.4-2-0.8-3-1.2c-0.8-0.3-1.6-0.6-2.4-0.9c-2.3-0.9-4.3-1.9-6.1-2.7c-2.4-1.1-4.4-2.1-5.9-3.2c-2.1-1.6-3.2-3.4-3.2-5.5
	c0-1.9,0.8-3.4,2.2-4.5c1.2-1,2.9-1.8,4.7-2.3c1.7-0.4,3.5-0.6,5.2-0.6c2.1,0,4,0.1,5.6,0.6c2.1,0.5,3.7,1.4,5.2,2.2
	c1.9,1.1,4.1,3.3,5.3,4.5l1.1,1l1.5,1.4l13.7-14l-1.3-1.3l-1.2-1.1c-1.6-1.5-4.2-3.8-5.9-5.1c-1.8-1.3-3.5-2.6-5.4-3.6
	c-1.9-1-3.9-1.8-6-2.5c-2-0.7-4.1-1.2-6.3-1.6c-2-0.3-4.2-0.4-6.5-0.4c-2,0-4,0.1-6,0.4c-2,0.3-4,0.8-5.8,1.4
	c-1.9,0.6-3.8,1.4-5.5,2.3c-1.8,0.9-3.6,1.9-5.1,3.2c-1.6,1.3-3,2.7-4.2,4.3c-1.2,1.6-2.3,3.3-3.2,5.1c-0.1,0.2-0.2,0.4-0.3,0.6
	c-0.5,1.3-0.9,2.6-1.3,4c-0.1,0.4-0.2,0.7-0.2,1.1c-0.4,1.8-0.6,3.6-0.6,5.6c0,2.3,0.2,4.5,0.6,6.5c0.5,2.1,1.3,4,2.2,5.7
	c1,1.8,2.3,3.4,3.6,4.9c1.4,1.5,2.9,2.8,4.6,4c1.6,1.2,3.5,2.1,5.3,3.1c1.8,1,3.6,1.9,5.5,2.7c0.3,0.1,0.5,0.2,0.8,0.3
	c1.3,0.5,2.5,1,3.8,1.5c0.4,0.1,0.7,0.3,1.1,0.4c1.8,0.7,3.5,1.5,5.1,2.1c1.9,0.8,3.6,1.5,5,2.4c1.8,1,3.3,2.2,4.3,3.4
	c1.3,1.4,2.1,3.1,2.1,5c0,2.3-0.8,4.1-2.1,5.4c-1.4,1.4-3.3,2.2-5.1,2.7c-2.3,0.6-4.6,0.7-5.8,0.7c-2,0-3.8-0.1-5.5-0.4
	c-1.9-0.3-3.6-0.9-5.3-1.5c-1.7-0.7-3.4-1.4-5-2.4c-1.4-0.8-2.8-1.6-4.1-2.6c-0.2-0.1-0.3-0.2-0.5-0.4c-0.4-0.3-0.8-0.4-1.3-0.4
	c-0.5,0-1,0.2-1.3,0.6c-1.7,2-1.6,2.1-3.3,4.1c-1.7,2-1.7,2-3.4,4.1c-1.7,2-1.6,2.1-3.3,4.2c-0.3,0.3-0.4,0.7-0.4,1c0,0,0,0.1,0,0.1
	c0,0.4,0.1,0.7,0.3,1c0.1,0.1,0.2,0.2,0.3,0.3c1.6,1.2,3.2,2.4,4.8,3.5c1.7,1.1,3.4,2.1,5.1,3c1.8,0.9,3.5,1.9,5.4,2.6
	c1.8,0.7,3.8,1.3,5.7,1.8c1.9,0.5,3.8,0.9,5.8,1.1c1.9,0.2,3.9,0.2,5.9,0.2l0,0c2.1,0,4.1-0.1,6.1-0.3c2.1-0.3,4.1-0.7,6-1.3
	c2-0.6,3.9-1.2,5.7-2.1c1.9-0.9,3.6-2.1,5.1-3.3c1.6-1.3,3.1-2.7,4.3-4.3c1.3-1.6,2.4-3.3,3.3-5.1c0-0.1,0.1-0.1,0.1-0.2
	c0.6-1.2,1.1-2.5,1.5-3.8C210.7,205.5,210.9,205,211,204.4z M198.5,154.9c1.9-1.9,1.8-2,3.7-3.9c1.9-1.9,1.9-1.8,3.8-3.7
	L198.5,154.9z M201.9,203.8c-0.6,1.7-1.1,3-1.7,3.9c-0.7,1.2-1.6,2.3-2.6,3.4c-0.7,0.7-1.7,1.6-3.2,2.7c-1.1,0.7-2.4,1.4-4,2.2
	c-1.3,0.5-2.8,0.9-4.6,1.2c-1.2,0.3-2.8,0.5-4.9,0.7c-0.9,0.1-1.3,0.2-1.3,0.2s-1.3-0.1-3.8-0.3c-2.4-0.2-4-0.3-5-0.5l-4.8-1.2
	c-1.8-0.6-3.4-1.3-4.8-1.9c-1.9-0.8-3.2-1.5-4.1-2c-1.9-1.2-3-2-3.3-2.2c-0.2-0.2-0.2-0.4,0-0.6l0.3-0.1l1.1-1.2
	c0.2-0.2,0.4-0.3,0.5-0.1c1.4,1,3.5,2.1,6.1,3.4c2.3,1,4.6,1.8,6.8,2.4c2.4,0.5,4.8,0.8,7.2,1c2.9,0.2,5.7,0,8.4-0.5
	c3.9-0.8,7.2-2.2,9.7-4.5c3-2.7,4.7-6,5.1-10c0-0.3,0.1-0.6,0.1-1c0.1-1.6,0-3.1-0.4-4.6c-0.5-2.3-1.6-4.4-3.2-6.4
	c-1.5-2-3.7-3.9-6.4-5.6c-1.4-0.9-3.1-1.8-5.1-2.8l-0.3-0.1l-0.4-0.2c-1.1-0.6-2.1-1.1-2.9-1.5c-0.1,0-0.1-0.1-0.2-0.1
	c-0.9-0.4-1.6-0.8-2.2-1.1L177,176l-1-0.5l-2.4-1.1l-0.9-0.4c-0.8-0.5-2.3-1.4-4.4-2.6l-0.5-0.3c-0.6-0.4-1.2-0.8-2-1.2
	c-0.7-0.4-1.5-0.9-2.2-1.5c-1.1-0.9-2.2-2-3.2-3.2c-1.1-1.3-1.8-2.4-2.1-3.4c-0.4-0.7-0.8-1.9-1.3-3.7c0-0.2,0-0.3,0-0.5
	c-0.1-1.3-0.1-2.7,0-4.2c0-0.4,0.1-0.7,0.1-1.1c0.1-0.9,0.4-1.8,0.7-2.7c0.4-1.5,0.8-2.8,1.3-3.8c1-1.5,1.8-2.5,2.5-3.2
	c1.5-1.4,2.6-2.3,3.2-2.9c0.9-0.6,2.2-1.3,4-1.9c1-0.4,2.5-0.9,4.5-1.5c1.6-0.5,3.2-0.7,4.7-0.7c1.6-0.1,3.2-0.2,4.9,0
	c1.7,0.1,3.5,0.3,5.4,0.6c1.8,0.4,3.5,0.9,5,1.6c1.8,0.8,3.3,1.6,4.6,2.2l2.9,2.1c0.2,0.3,0.2,0.4,0,0.5l-1.6,1.4
	c-0.2,0.2-0.4,0.1-0.5,0c-0.1,0-0.2-0.1-0.4-0.3c-3-2-5.5-3.3-7.4-4c-2.2-0.7-4.8-1.1-7.8-1.3c-3-0.2-5.5-0.1-7.7,0.4
	c-3.3,0.5-6.1,1.7-8.4,3.4c-1.9,1.3-3.3,2.9-4.4,4.8c-1.1,1.9-1.7,3.8-1.9,6c-0.1,0.9,0,1.9,0.1,2.8c0.5,3.7,2.4,7.1,5.9,10.1
	c1.9,1.6,4.4,3.1,7.5,4.6l0.9,0.6l2.2,1.1l2.5,1.2l1,0.5l2.3,1.1l0.3,0.2l2.5,1.2c2,1,3.7,1.8,4.8,2.5c1.4,0.8,2.7,1.7,4,2.8
	c1.5,1,2.7,2,3.5,2.9c0.9,0.9,1.8,2,2.6,3.1c0.5,0.8,1,2,1.5,3.4c0.4,1.6,0.7,2.8,0.8,3.8c0.1,1,0.2,2.1,0.1,3.1c0,0.3,0,0.7,0,1
	c-0.1,1.3-0.3,2.5-0.6,3.6C202.1,203.3,202,203.5,201.9,203.8z"/>
<ellipse transform="matrix(0.381 -0.9246 0.9246 0.381 -55.7719 278.8061)" class="st2" cx="180.3" cy="181.1" rx="112.8" ry="112.8"/>
</svg>
