<?xml version="1.0" encoding="UTF-8"?>
<svg id="Layer_1" data-name="Layer 1" xmlns="http://www.w3.org/2000/svg" xmlns:xlink="http://www.w3.org/1999/xlink" version="1.1" viewBox="0 0 400 394">
  <defs>
    <style>
      .cls-1 {
        clip-path: url(#clippath);
      }

      .cls-2 {
        fill: none;
      }

      .cls-2, .cls-3, .cls-4, .cls-5 {
        stroke-width: 0px;
      }

      .cls-3 {
        fill: #363934;
      }

      .cls-4 {
        fill: #bdc5d1;
        isolation: isolate;
        opacity: .3;
      }

      .cls-5 {
        fill: #fff;
      }
    </style>
    <clipPath id="clippath">
      <rect class="cls-2" x="-6" width="400" height="393.8"/>
    </clipPath>
  </defs>
  <g class="cls-1">
    <g>
      <path class="cls-4" d="M229.3,211.9l-131.6-54.7c-9.4-3.8-13.8-14.7-10-24.1L142.4,1.9c3.8-9.4,14.7-13.7,24.1-10l131.6,54.4c9.4,3.8,13.7,14.7,10,24.1l-54.7,131.6c-3.8,9.4-14.7,13.8-24.1,10Z"/>
      <path class="cls-5" d="M223.4,198.1l-131.6-54.7c-9.4-3.8-13.8-14.7-10-24.1L136.5-11.9c3.8-9.4,14.7-13.7,24.1-10l131.6,54.4c9.4,3.8,13.8,14.7,10,24.1l-54.7,131.6c-3.8,9.4-14.7,13.8-24.1,10Z"/>
      <path class="cls-4" d="M144.6,420.9L13.1,366.6c-9.4-3.8-13.8-14.7-10-24.1l54.4-131.6c3.8-9.4,14.7-13.8,24.1-10l131.9,54.7c9.4,3.8,13.8,14.7,10,24.1l-54.4,131.6c-4.4,9.1-15,13.8-24.4,9.7Z"/>
      <path class="cls-5" d="M137.8,404.7L6.2,350.3c-9.4-3.8-13.8-14.7-10-24.1l54.4-131.6c3.8-9.4,14.7-13.8,24.1-10l131.9,54.7c9.4,3.8,13.8,14.7,10,24.1l-54.4,131.6c-4.4,9.1-15,13.8-24.4,9.7Z"/>
      <path class="cls-4" d="M382.8,430.6l-131.6-54.4c-9.4-3.8-13.8-14.7-10-24.1l54.4-131.6c3.8-9.4,14.7-13.8,24.1-10l131.6,54.4c9.4,3.8,13.8,14.7,10,24.1l-54.4,131.6c-4.1,9.4-14.7,13.8-24.1,10Z"/>
      <path class="cls-5" d="M376.8,418.8l-131.6-54.4c-9.4-3.8-13.8-14.7-10-24.1l54.4-131.6c3.8-9.4,14.7-13.8,24.1-10l131.6,54.4c9.4,3.8,13.8,14.7,10,24.1l-54.4,131.6c-4.1,9.4-14.7,13.8-24.1,10Z"/>
      <path class="cls-4" d="M469.3,225.6l-131.6-54.4c-9.4-3.8-13.8-14.7-10-24.1L382.1,15.6c3.8-9.4,14.7-13.7,24.1-10l131.6,54.4c9.4,3.8,13.8,14.7,10,24.1l-54.4,131.6c-4.1,9.4-14.7,13.8-24.1,10Z"/>
      <path class="cls-5" d="M462.4,211.9l-131.6-54.4c-9.4-3.8-13.8-14.7-10-24.1L375.2,1.9c3.8-9.4,14.7-13.7,24.1-10l131.6,54.4c9.4,3.8,13.8,14.7,10,24.1l-54.4,131.6c-4.1,9.4-14.7,13.8-24.1,10Z"/>
      <path class="cls-3" d="M109.8,239.1c-5.8-2.9-12.9-.6-15.8,5.2l-31.9,63c-2.9,5.8-.6,12.9,5.2,15.8l42,21.2c5.8,2.9,12.9.6,15.8-5.2l23.9-47.3-21-10.6c-2.9-1.5-4.1-5-2.6-7.9l10.6-21-26.3-13.3ZM141.3,255.1l-10.6,21,21,10.6-10.4-31.6ZM95.2,277.9l34.1,17.3c2.9,1.5,4.1,5,2.6,7.9l-1.3,2.6-6.6,13.1-5.3,10.5c-1.5,2.9-5,4.1-7.9,2.6l-10.5-5.3-13.1-6.6-10.5-5.3c-2.9-1.5-4.1-5-2.6-7.9l5.3-10.5,6.6-13.1,1.3-2.6c1.5-2.9,5-4.1,7.9-2.6ZM85.9,296.3l7.9,4,4-7.9-7.9-4-4,7.9ZM99,302.9l7.9,4,4-7.9-7.9-4-4,7.9ZM112.1,309.5l7.9,4,4-7.9-7.9-4-4,7.9ZM109.5,314.8l-4,7.9,7.9,4,4-7.9-7.9-4ZM104.2,312.1l-7.9-4-4,7.9,7.9,4,4-7.9ZM91.1,305.5l-7.9-4-4,7.9,7.9,4,4-7.9Z"/>
      <path class="cls-3" d="M393.9,277.9l-57.2-24.9-33.3,76.3,21.4,9.4,8.3-19.1,14.3,6.2-8.3,19.1,21.4,9.4,33.3-76.3ZM331.7,290.4l9.5,4.2-4.2,9.5-9.5-4.2,4.2-9.5ZM355.5,300.8l-4.2,9.5-9.5-4.2,4.2-9.5,9.5,4.2ZM360.3,302.9l9.5,4.2-4.2,9.5-9.5-4.2,4.2-9.5ZM349.5,275.5l-4.2,9.5-9.5-4.2,4.2-9.5,9.5,4.2ZM354.3,277.6l9.5,4.2-4.2,9.5-9.5-4.2,4.2-9.5ZM378.1,288l-4.2,9.5-9.5-4.2,4.2-9.5,9.5,4.2Z"/>
    </g>
    <path class="cls-3" d="M250.3,68c3,1.3,4.4,4.8,3.1,7.8l-27.8,65.3c-1.3,3-4.8,4.4-7.8,3.1l-27.2-11.6c-3-1.3-4.4-4.8-3.1-7.8l27.8-65.3c1.3-3,4.8-4.4,7.8-3.1l27.2,11.6ZM225.4,51c-6-2.6-13,.2-15.5,6.2l-27.8,65.3c-2.6,6,.2,13,6.2,15.5l27.2,11.6c6,2.6,13-.2,15.5-6.2l27.8-65.3c2.6-6-.2-13-6.2-15.5l-27.2-11.6ZM199.8,65.8l-21.8-9.3c-6-2.6-13,.2-15.5,6.2l-18.5,43.5c-2.6,6,.2,13,6.2,15.5l25.9,11c-.7-2.2-1.1-4.5-.9-6.8l-22.7-9.7c-3-1.3-4.4-4.8-3.1-7.8l18.5-43.5c1.3-3,4.8-4.4,7.8-3.1l21.8,9.3,2.3-5.4ZM168.2,90.9c-2.3-1-4.9,0-5.8,2.3l-3.5,8.2c-1,2.3,0,4.9,2.3,5.8l8.2,3.5c2.3,1,4.9,0,5.8-2.3l3.5-8.2c1-2.3,0-4.9-2.3-5.8l-8.2-3.5ZM164.9,102.4l2.3-5.4,5.4,2.3-2.3,5.4-5.4-2.3ZM202.4,119.9c-1,2.3,0,4.9,2.3,5.8l8.2,3.5c2.3,1,4.9,0,5.8-2.3l3.5-8.2c1-2.3,0-4.9-2.3-5.8l-8.2-3.5c-2.3-1-4.9,0-5.8,2.3l-3.5,8.2ZM208.4,120.9l2.3-5.4,5.4,2.3-2.3,5.4-5.4-2.3ZM177.4,69.1c-2.3-1-4.9,0-5.8,2.3l-3.5,8.2c-1,2.3,0,4.9,2.3,5.8l8.2,3.5c2.3,1,4.9,0,5.8-2.3l3.5-8.2c1-2.3,0-4.9-2.3-5.8l-8.2-3.5ZM174.2,80.6l2.3-5.4,5.4,2.3-2.3,5.4-5.4-2.3ZM224.4,68.2l-3.5,8.2c-1,2.3,0,4.9,2.3,5.8l8.2,3.5c2.3,1,4.9,0,5.8-2.3l3.5-8.2c1-2.3,0-4.9-2.3-5.8l-8.2-3.5c-2.3-1-4.9,0-5.8,2.3ZM229.3,71.9l5.4,2.3-2.3,5.4-5.4-2.3,2.3-5.4ZM214,104l8.2,3.5c2.3,1,4.9,0,5.8-2.3l3.5-8.2c1-2.3,0-4.9-2.3-5.8l-8.2-3.5c-2.3-1-4.9,0-5.8,2.3l-3.5,8.2c-1,2.3,0,4.9,2.3,5.8ZM220,93.7l5.4,2.3-2.3,5.4-5.4-2.3,2.3-5.4Z"/>
  </g>
</svg>